<?xml version="1.0" encoding="UTF-8" standalone="no"?>
<!DOCTYPE svg PUBLIC "-//W3C//DTD SVG 1.1//EN"
 "http://www.w3.org/Graphics/SVG/1.1/DTD/svg11.dtd">
<!-- Generated by graphviz version 2.38.0 (20140413.2041)
 -->
<!-- Title: controllers_diagram Pages: 1 -->
<svg width="806pt" height="675pt"
 viewBox="0.00 0.00 806.10 675.00" xmlns="http://www.w3.org/2000/svg" xmlns:xlink="http://www.w3.org/1999/xlink">
<g id="graph0" class="graph" transform="scale(1 1) rotate(0) translate(339.772 399.5)">
<title>controllers_diagram</title>
<polygon fill="white" stroke="none" points="-339.772,275.5 -339.772,-399.5 466.328,-399.5 466.328,275.5 -339.772,275.5"/>
<!-- _diagram_info -->
<g id="node1" class="node"><title>_diagram_info</title>
<text text-anchor="start" x="-216.45" y="164.9" font-family="Times,serif" font-size="13.00">Controllers diagram</text>
<text text-anchor="start" x="-216.45" y="177.9" font-family="Times,serif" font-size="13.00">Date: Nov 07 2014 &#45; 19:28</text>
<text text-anchor="start" x="-216.45" y="190.9" font-family="Times,serif" font-size="13.00">Migration version: 20141108000706</text>
<text text-anchor="start" x="-216.45" y="203.9" font-family="Times,serif" font-size="13.00">Generated by RailRoady 1.2.0</text>
<text text-anchor="start" x="-216.45" y="216.9" font-family="Times,serif" font-size="13.00">http://railroady.prestonlee.com</text>
</g>
<!-- Admin::PaymentsController -->
<g id="node2" class="node"><title>Admin::PaymentsController</title>
<path fill="none" stroke="black" d="M299.672,-257C299.672,-257 450.328,-257 450.328,-257 456.328,-257 462.328,-263 462.328,-269 462.328,-269 462.328,-335 462.328,-335 462.328,-341 456.328,-347 450.328,-347 450.328,-347 299.672,-347 299.672,-347 293.672,-347 287.672,-341 287.672,-335 287.672,-335 287.672,-269 287.672,-269 287.672,-263 293.672,-257 299.672,-257"/>
<text text-anchor="middle" x="375" y="-331.8" font-family="Times,serif" font-size="14.00">Admin::PaymentsController</text>
<polyline fill="none" stroke="black" points="287.672,-325 462.328,-325 "/>
<text text-anchor="start" x="295.672" y="-309.8" font-family="Times,serif" font-size="14.00">index</text>
<polyline fill="none" stroke="black" points="287.672,-303 462.328,-303 "/>
<polyline fill="none" stroke="black" points="287.672,-279 462.328,-279 "/>
<text text-anchor="start" x="295.672" y="-263.8" font-family="Times,serif" font-size="14.00">_layout</text>
</g>
<!-- Admin::VideosController -->
<g id="node3" class="node"><title>Admin::VideosController</title>
<path fill="none" stroke="black" d="M284.479,271C284.479,271 419.521,271 419.521,271 425.521,271 431.521,265 431.521,259 431.521,259 431.521,165 431.521,165 431.521,159 425.521,153 419.521,153 419.521,153 284.479,153 284.479,153 278.479,153 272.479,159 272.479,165 272.479,165 272.479,259 272.479,259 272.479,265 278.479,271 284.479,271"/>
<text text-anchor="middle" x="352" y="168.2" font-family="Times,serif" font-size="14.00">Admin::VideosController</text>
<polyline fill="none" stroke="black" points="272.479,175 431.521,175 "/>
<text text-anchor="start" x="280.479" y="190.2" font-family="Times,serif" font-size="14.00">create</text>
<text text-anchor="start" x="280.479" y="204.2" font-family="Times,serif" font-size="14.00">new</text>
<polyline fill="none" stroke="black" points="272.479,211 431.521,211 "/>
<polyline fill="none" stroke="black" points="272.479,235 431.521,235 "/>
<text text-anchor="start" x="280.479" y="250.2" font-family="Times,serif" font-size="14.00">_layout</text>
<text text-anchor="start" x="280.479" y="264.2" font-family="Times,serif" font-size="14.00">video_params</text>
</g>
<!-- ApplicationController -->
<g id="node4" class="node"><title>ApplicationController</title>
<path fill="none" stroke="black" d="M-67.8208,-129C-67.8208,-129 47.8208,-129 47.8208,-129 53.8208,-129 59.8208,-135 59.8208,-141 59.8208,-141 59.8208,-263 59.8208,-263 59.8208,-269 53.8208,-275 47.8208,-275 47.8208,-275 -67.8208,-275 -67.8208,-275 -73.8208,-275 -79.8208,-269 -79.8208,-263 -79.8208,-263 -79.8208,-141 -79.8208,-141 -79.8208,-135 -73.8208,-129 -67.8208,-129"/>
<text text-anchor="middle" x="-10" y="-259.8" font-family="Times,serif" font-size="14.00">ApplicationController</text>
<polyline fill="none" stroke="black" points="-79.8208,-253 59.8208,-253 "/>
<text text-anchor="start" x="-71.8208" y="-237.8" font-family="Times,serif" font-size="14.00">access_denied</text>
<text text-anchor="start" x="-71.8208" y="-223.8" font-family="Times,serif" font-size="14.00">current_user</text>
<text text-anchor="start" x="-71.8208" y="-209.8" font-family="Times,serif" font-size="14.00">require_admin</text>
<text text-anchor="start" x="-71.8208" y="-195.8" font-family="Times,serif" font-size="14.00">require_user</text>
<text text-anchor="start" x="-71.8208" y="-181.8" font-family="Times,serif" font-size="14.00">signed_in?</text>
<polyline fill="none" stroke="black" points="-79.8208,-175 59.8208,-175 "/>
<polyline fill="none" stroke="black" points="-79.8208,-151 59.8208,-151 "/>
<text text-anchor="start" x="-71.8208" y="-135.8" font-family="Times,serif" font-size="14.00">_layout</text>
</g>
<!-- CategoriesController -->
<g id="node5" class="node"><title>CategoriesController</title>
<path fill="none" stroke="black" d="M140.293,-289C140.293,-289 249.707,-289 249.707,-289 255.707,-289 261.707,-295 261.707,-301 261.707,-301 261.707,-381 261.707,-381 261.707,-387 255.707,-393 249.707,-393 249.707,-393 140.293,-393 140.293,-393 134.293,-393 128.293,-387 128.293,-381 128.293,-381 128.293,-301 128.293,-301 128.293,-295 134.293,-289 140.293,-289"/>
<text text-anchor="middle" x="195" y="-377.8" font-family="Times,serif" font-size="14.00">CategoriesController</text>
<polyline fill="none" stroke="black" points="128.293,-371 261.707,-371 "/>
<text text-anchor="start" x="136.293" y="-355.8" font-family="Times,serif" font-size="14.00">index</text>
<text text-anchor="start" x="136.293" y="-341.8" font-family="Times,serif" font-size="14.00">show</text>
<polyline fill="none" stroke="black" points="128.293,-335 261.707,-335 "/>
<polyline fill="none" stroke="black" points="128.293,-311 261.707,-311 "/>
<text text-anchor="start" x="136.293" y="-295.8" font-family="Times,serif" font-size="14.00">_layout</text>
</g>
<!-- InvitationsController -->
<g id="node6" class="node"><title>InvitationsController</title>
<path fill="none" stroke="black" d="M-227.714,-241C-227.714,-241 -118.286,-241 -118.286,-241 -112.286,-241 -106.286,-247 -106.286,-253 -106.286,-253 -106.286,-347 -106.286,-347 -106.286,-353 -112.286,-359 -118.286,-359 -118.286,-359 -227.714,-359 -227.714,-359 -233.714,-359 -239.714,-353 -239.714,-347 -239.714,-347 -239.714,-253 -239.714,-253 -239.714,-247 -233.714,-241 -227.714,-241"/>
<text text-anchor="middle" x="-173" y="-343.8" font-family="Times,serif" font-size="14.00">InvitationsController</text>
<polyline fill="none" stroke="black" points="-239.714,-337 -106.286,-337 "/>
<text text-anchor="start" x="-231.714" y="-321.8" font-family="Times,serif" font-size="14.00">create</text>
<text text-anchor="start" x="-231.714" y="-307.8" font-family="Times,serif" font-size="14.00">new</text>
<polyline fill="none" stroke="black" points="-239.714,-301 -106.286,-301 "/>
<polyline fill="none" stroke="black" points="-239.714,-277 -106.286,-277 "/>
<text text-anchor="start" x="-231.714" y="-261.8" font-family="Times,serif" font-size="14.00">_layout</text>
<text text-anchor="start" x="-231.714" y="-247.8" font-family="Times,serif" font-size="14.00">invitation_params</text>
</g>
<!-- PagesController -->
<g id="node7" class="node"><title>PagesController</title>
<path fill="none" stroke="black" d="M-4.10352,-305C-4.10352,-305 78.1035,-305 78.1035,-305 84.1035,-305 90.1035,-311 90.1035,-317 90.1035,-317 90.1035,-383 90.1035,-383 90.1035,-389 84.1035,-395 78.1035,-395 78.1035,-395 -4.10352,-395 -4.10352,-395 -10.1035,-395 -16.1035,-389 -16.1035,-383 -16.1035,-383 -16.1035,-317 -16.1035,-317 -16.1035,-311 -10.1035,-305 -4.10352,-305"/>
<text text-anchor="middle" x="37" y="-379.8" font-family="Times,serif" font-size="14.00">PagesController</text>
<polyline fill="none" stroke="black" points="-16.1035,-373 90.1035,-373 "/>
<text text-anchor="start" x="-8.10352" y="-357.8" font-family="Times,serif" font-size="14.00">front</text>
<polyline fill="none" stroke="black" points="-16.1035,-351 90.1035,-351 "/>
<polyline fill="none" stroke="black" points="-16.1035,-327 90.1035,-327 "/>
<text text-anchor="start" x="-8.10352" y="-311.8" font-family="Times,serif" font-size="14.00">_layout</text>
</g>
<!-- PasswordResetController -->
<g id="node8" class="node"><title>PasswordResetController</title>
<path fill="none" stroke="black" d="M107.841,-97C107.841,-97 242.159,-97 242.159,-97 248.159,-97 254.159,-103 254.159,-109 254.159,-109 254.159,-245 254.159,-245 254.159,-251 248.159,-257 242.159,-257 242.159,-257 107.841,-257 107.841,-257 101.841,-257 95.8413,-251 95.8413,-245 95.8413,-245 95.8413,-109 95.8413,-109 95.8413,-103 101.841,-97 107.841,-97"/>
<text text-anchor="middle" x="175" y="-241.8" font-family="Times,serif" font-size="14.00">PasswordResetController</text>
<polyline fill="none" stroke="black" points="95.8413,-235 254.159,-235 "/>
<text text-anchor="start" x="103.841" y="-219.8" font-family="Times,serif" font-size="14.00">confirm</text>
<text text-anchor="start" x="103.841" y="-205.8" font-family="Times,serif" font-size="14.00">create</text>
<text text-anchor="start" x="103.841" y="-191.8" font-family="Times,serif" font-size="14.00">expired_token</text>
<text text-anchor="start" x="103.841" y="-177.8" font-family="Times,serif" font-size="14.00">new</text>
<text text-anchor="start" x="103.841" y="-163.8" font-family="Times,serif" font-size="14.00">reset_password</text>
<text text-anchor="start" x="103.841" y="-149.8" font-family="Times,serif" font-size="14.00">show</text>
<polyline fill="none" stroke="black" points="95.8413,-143 254.159,-143 "/>
<polyline fill="none" stroke="black" points="95.8413,-119 254.159,-119 "/>
<text text-anchor="start" x="103.841" y="-103.8" font-family="Times,serif" font-size="14.00">_layout</text>
</g>
<!-- QueueItemsController -->
<g id="node9" class="node"><title>QueueItemsController</title>
<path fill="none" stroke="black" d="M-67.5933,111C-67.5933,111 49.5933,111 49.5933,111 55.5933,111 61.5933,105 61.5933,99 61.5933,99 61.5933,-79 61.5933,-79 61.5933,-85 55.5933,-91 49.5933,-91 49.5933,-91 -67.5933,-91 -67.5933,-91 -73.5933,-91 -79.5933,-85 -79.5933,-79 -79.5933,-79 -79.5933,99 -79.5933,99 -79.5933,105 -73.5933,111 -67.5933,111"/>
<text text-anchor="middle" x="-9" y="-75.8" font-family="Times,serif" font-size="14.00">QueueItemsController</text>
<polyline fill="none" stroke="black" points="-79.5933,-69 61.5933,-69 "/>
<text text-anchor="start" x="-71.5933" y="-53.8" font-family="Times,serif" font-size="14.00">create</text>
<text text-anchor="start" x="-71.5933" y="-39.8" font-family="Times,serif" font-size="14.00">destroy</text>
<text text-anchor="start" x="-71.5933" y="-25.8" font-family="Times,serif" font-size="14.00">index</text>
<text text-anchor="start" x="-71.5933" y="-11.8" font-family="Times,serif" font-size="14.00">update_queue</text>
<polyline fill="none" stroke="black" points="-79.5933,-5 61.5933,-5 "/>
<polyline fill="none" stroke="black" points="-79.5933,19 61.5933,19 "/>
<text text-anchor="start" x="-71.5933" y="34.2" font-family="Times,serif" font-size="14.00">_layout</text>
<text text-anchor="start" x="-71.5933" y="48.2" font-family="Times,serif" font-size="14.00">already_queued?</text>
<text text-anchor="start" x="-71.5933" y="62.2" font-family="Times,serif" font-size="14.00">new_item_position</text>
<text text-anchor="start" x="-71.5933" y="76.2" font-family="Times,serif" font-size="14.00">queue_video</text>
<text text-anchor="start" x="-71.5933" y="90.2" font-family="Times,serif" font-size="14.00">set_video</text>
<text text-anchor="start" x="-71.5933" y="104.2" font-family="Times,serif" font-size="14.00">update_queue_items</text>
</g>
<!-- RelationshipsController -->
<g id="node10" class="node"><title>RelationshipsController</title>
<path fill="none" stroke="black" d="M108.117,255C108.117,255 233.883,255 233.883,255 239.883,255 245.883,249 245.883,243 245.883,243 245.883,135 245.883,135 245.883,129 239.883,123 233.883,123 233.883,123 108.117,123 108.117,123 102.117,123 96.1172,129 96.1172,135 96.1172,135 96.1172,243 96.1172,243 96.1172,249 102.117,255 108.117,255"/>
<text text-anchor="middle" x="171" y="138.2" font-family="Times,serif" font-size="14.00">RelationshipsController</text>
<polyline fill="none" stroke="black" points="96.1172,145 245.883,145 "/>
<text text-anchor="start" x="104.117" y="160.2" font-family="Times,serif" font-size="14.00">create</text>
<text text-anchor="start" x="104.117" y="174.2" font-family="Times,serif" font-size="14.00">destroy</text>
<text text-anchor="start" x="104.117" y="188.2" font-family="Times,serif" font-size="14.00">index</text>
<polyline fill="none" stroke="black" points="96.1172,195 245.883,195 "/>
<polyline fill="none" stroke="black" points="96.1172,219 245.883,219 "/>
<text text-anchor="start" x="104.117" y="234.2" font-family="Times,serif" font-size="14.00">_layout</text>
<text text-anchor="start" x="104.117" y="248.2" font-family="Times,serif" font-size="14.00">follow_user</text>
</g>
<!-- ReviewsController -->
<g id="node11" class="node"><title>ReviewsController</title>
<path fill="none" stroke="black" d="M316.121,127C316.121,127 413.879,127 413.879,127 419.879,127 425.879,121 425.879,115 425.879,115 425.879,35 425.879,35 425.879,29 419.879,23 413.879,23 413.879,23 316.121,23 316.121,23 310.121,23 304.121,29 304.121,35 304.121,35 304.121,115 304.121,115 304.121,121 310.121,127 316.121,127"/>
<text text-anchor="middle" x="365" y="38.2" font-family="Times,serif" font-size="14.00">ReviewsController</text>
<polyline fill="none" stroke="black" points="304.121,45 425.879,45 "/>
<text text-anchor="start" x="312.121" y="60.2" font-family="Times,serif" font-size="14.00">create</text>
<polyline fill="none" stroke="black" points="304.121,67 425.879,67 "/>
<polyline fill="none" stroke="black" points="304.121,91 425.879,91 "/>
<text text-anchor="start" x="312.121" y="106.2" font-family="Times,serif" font-size="14.00">_layout</text>
<text text-anchor="start" x="312.121" y="120.2" font-family="Times,serif" font-size="14.00">review_params</text>
</g>
<!-- SessionsController -->
<g id="node12" class="node"><title>SessionsController</title>
<path fill="none" stroke="black" d="M300.11,-97C300.11,-97 397.89,-97 397.89,-97 403.89,-97 409.89,-103 409.89,-109 409.89,-109 409.89,-217 409.89,-217 409.89,-223 403.89,-229 397.89,-229 397.89,-229 300.11,-229 300.11,-229 294.11,-229 288.11,-223 288.11,-217 288.11,-217 288.11,-109 288.11,-109 288.11,-103 294.11,-97 300.11,-97"/>
<text text-anchor="middle" x="349" y="-213.8" font-family="Times,serif" font-size="14.00">SessionsController</text>
<polyline fill="none" stroke="black" points="288.11,-207 409.89,-207 "/>
<text text-anchor="start" x="296.11" y="-191.8" font-family="Times,serif" font-size="14.00">create</text>
<text text-anchor="start" x="296.11" y="-177.8" font-family="Times,serif" font-size="14.00">destroy</text>
<text text-anchor="start" x="296.11" y="-163.8" font-family="Times,serif" font-size="14.00">new</text>
<polyline fill="none" stroke="black" points="288.11,-157 409.89,-157 "/>
<polyline fill="none" stroke="black" points="288.11,-133 409.89,-133 "/>
<text text-anchor="start" x="296.11" y="-117.8" font-family="Times,serif" font-size="14.00">_layout</text>
<text text-anchor="start" x="296.11" y="-103.8" font-family="Times,serif" font-size="14.00">signin_user!</text>
</g>
<!-- UiController -->
<g id="node13" class="node"><title>UiController</title>
<path fill="none" stroke="black" d="M-323.772,-1C-323.772,-1 -260.228,-1 -260.228,-1 -254.228,-1 -248.228,-7 -248.228,-13 -248.228,-13 -248.228,-79 -248.228,-79 -248.228,-85 -254.228,-91 -260.228,-91 -260.228,-91 -323.772,-91 -323.772,-91 -329.772,-91 -335.772,-85 -335.772,-79 -335.772,-79 -335.772,-13 -335.772,-13 -335.772,-7 -329.772,-1 -323.772,-1"/>
<text text-anchor="middle" x="-292" y="-75.8" font-family="Times,serif" font-size="14.00">UiController</text>
<polyline fill="none" stroke="black" points="-335.772,-69 -248.228,-69 "/>
<text text-anchor="start" x="-327.772" y="-53.8" font-family="Times,serif" font-size="14.00">index</text>
<polyline fill="none" stroke="black" points="-335.772,-47 -248.228,-47 "/>
<polyline fill="none" stroke="black" points="-335.772,-23 -248.228,-23 "/>
<text text-anchor="start" x="-327.772" y="-7.8" font-family="Times,serif" font-size="14.00">_layout</text>
</g>
<!-- UsersController -->
<g id="node14" class="node"><title>UsersController</title>
<path fill="none" stroke="black" d="M108.01,95C108.01,95 253.99,95 253.99,95 259.99,95 265.99,89 265.99,83 265.99,83 265.99,-53 265.99,-53 265.99,-59 259.99,-65 253.99,-65 253.99,-65 108.01,-65 108.01,-65 102.01,-65 96.0103,-59 96.0103,-53 96.0103,-53 96.0103,83 96.0103,83 96.0103,89 102.01,95 108.01,95"/>
<text text-anchor="middle" x="181" y="-49.8" font-family="Times,serif" font-size="14.00">UsersController</text>
<polyline fill="none" stroke="black" points="96.0103,-43 265.99,-43 "/>
<text text-anchor="start" x="104.01" y="-27.8" font-family="Times,serif" font-size="14.00">create</text>
<text text-anchor="start" x="104.01" y="-13.8" font-family="Times,serif" font-size="14.00">new</text>
<text text-anchor="start" x="104.01" y="0.2" font-family="Times,serif" font-size="14.00">new_with_invitation_token</text>
<text text-anchor="start" x="104.01" y="14.2" font-family="Times,serif" font-size="14.00">show</text>
<polyline fill="none" stroke="black" points="96.0103,21 265.99,21 "/>
<polyline fill="none" stroke="black" points="96.0103,45 265.99,45 "/>
<text text-anchor="start" x="104.01" y="60.2" font-family="Times,serif" font-size="14.00">_layout</text>
<text text-anchor="start" x="104.01" y="74.2" font-family="Times,serif" font-size="14.00">set_user</text>
<text text-anchor="start" x="104.01" y="88.2" font-family="Times,serif" font-size="14.00">user_params</text>
</g>
<!-- VideosController -->
<g id="node15" class="node"><title>VideosController</title>
<path fill="none" stroke="black" d="M-212.187,-1C-212.187,-1 -123.813,-1 -123.813,-1 -117.813,-1 -111.813,-7 -111.813,-13 -111.813,-13 -111.813,-121 -111.813,-121 -111.813,-127 -117.813,-133 -123.813,-133 -123.813,-133 -212.187,-133 -212.187,-133 -218.187,-133 -224.187,-127 -224.187,-121 -224.187,-121 -224.187,-13 -224.187,-13 -224.187,-7 -218.187,-1 -212.187,-1"/>
<text text-anchor="middle" x="-168" y="-117.8" font-family="Times,serif" font-size="14.00">VideosController</text>
<polyline fill="none" stroke="black" points="-224.187,-111 -111.813,-111 "/>
<text text-anchor="start" x="-216.187" y="-95.8" font-family="Times,serif" font-size="14.00">index</text>
<text text-anchor="start" x="-216.187" y="-81.8" font-family="Times,serif" font-size="14.00">search</text>
<text text-anchor="start" x="-216.187" y="-67.8" font-family="Times,serif" font-size="14.00">show</text>
<text text-anchor="start" x="-216.187" y="-53.8" font-family="Times,serif" font-size="14.00">video</text>
<polyline fill="none" stroke="black" points="-224.187,-47 -111.813,-47 "/>
<polyline fill="none" stroke="black" points="-224.187,-23 -111.813,-23 "/>
<text text-anchor="start" x="-216.187" y="-7.8" font-family="Times,serif" font-size="14.00">_layout</text>
</g>
</g>
</svg>
