<?xml version="1.0" encoding="UTF-8" standalone="no"?>
<!DOCTYPE svg PUBLIC "-//W3C//DTD SVG 1.1//EN"
 "http://www.w3.org/Graphics/SVG/1.1/DTD/svg11.dtd">
<!-- Generated by graphviz version 2.38.0 (20140413.2041)
 -->
<!-- Title: models_diagram Pages: 1 -->
<svg width="831pt" height="240pt"
 viewBox="0.00 0.00 831.27 240.00" xmlns="http://www.w3.org/2000/svg" xmlns:xlink="http://www.w3.org/1999/xlink">
<g id="graph0" class="graph" transform="scale(1 1) rotate(0) translate(4 236)">
<title>models_diagram</title>
<polygon fill="white" stroke="none" points="-4,4 -4,-236 827.267,-236 827.267,4 -4,4"/>
<!-- _diagram_info -->
<g id="node1" class="node"><title>_diagram_info</title>
<text text-anchor="start" x="197.89" y="-217.6" font-family="Times,serif" font-size="13.00">Models diagram</text>
<text text-anchor="start" x="197.89" y="-204.6" font-family="Times,serif" font-size="13.00">Date: Nov 07 2014 &#45; 19:28</text>
<text text-anchor="start" x="197.89" y="-191.6" font-family="Times,serif" font-size="13.00">Migration version: 20141108000706</text>
<text text-anchor="start" x="197.89" y="-178.6" font-family="Times,serif" font-size="13.00">Generated by RailRoady 1.2.0</text>
<text text-anchor="start" x="197.89" y="-165.6" font-family="Times,serif" font-size="13.00">http://railroady.prestonlee.com</text>
</g>
<!-- Category -->
<g id="node2" class="node"><title>Category</title>
<ellipse fill="none" stroke="black" cx="457.34" cy="-195.5" rx="42.5456" ry="18"/>
<text text-anchor="middle" x="457.34" y="-191.3" font-family="Times,serif" font-size="14.00">Category</text>
</g>
<!-- Video -->
<g id="node10" class="node"><title>Video</title>
<ellipse fill="none" stroke="black" cx="410.34" cy="-104" rx="31.3854" ry="18"/>
<text text-anchor="middle" x="410.34" y="-99.8" font-family="Times,serif" font-size="14.00">Video</text>
</g>
<!-- Category&#45;&gt;Video -->
<g id="edge2" class="edge"><title>Category&#45;&gt;Video</title>
<path fill="none" stroke="#687d78" d="M443.809,-168.734C437.501,-156.72 430.015,-142.467 423.725,-130.489"/>
<polygon fill="#687d78" stroke="#687d78" points="443.85,-168.812 444.516,-179.758 446.175,-173.239 448.5,-177.666 448.5,-177.666 448.5,-177.666 446.175,-173.239 452.484,-175.574 443.85,-168.812 443.85,-168.812"/>
<polygon fill="#687d78" stroke="#687d78" points="423.631,-130.31 422.966,-119.364 421.307,-125.883 418.982,-121.456 418.982,-121.456 418.982,-121.456 421.307,-125.883 414.998,-123.549 423.631,-130.31 423.631,-130.31"/>
</g>
<!-- VideoCategory -->
<g id="node11" class="node"><title>VideoCategory</title>
<ellipse fill="none" stroke="black" cx="482.34" cy="-18" rx="63.7163" ry="18"/>
<text text-anchor="middle" x="482.34" y="-13.8" font-family="Times,serif" font-size="14.00">VideoCategory</text>
</g>
<!-- Category&#45;&gt;VideoCategory -->
<g id="edge1" class="edge"><title>Category&#45;&gt;VideoCategory</title>
<path fill="none" stroke="#3b2b97" d="M460.937,-169.247C465.591,-136.578 473.667,-79.883 478.457,-46.2622"/>
<ellipse fill="none" stroke="#3b2b97" cx="460.347" cy="-173.393" rx="4.00001" ry="4.00001"/>
<polygon fill="#3b2b97" stroke="#3b2b97" points="478.477,-46.1169 484.343,-36.8515 479.182,-41.1669 479.888,-36.2168 479.888,-36.2168 479.888,-36.2168 479.182,-41.1669 475.433,-35.5822 478.477,-46.1169 478.477,-46.1169"/>
</g>
<!-- Invitation -->
<g id="node3" class="node"><title>Invitation</title>
<ellipse fill="none" stroke="black" cx="562.34" cy="-195.5" rx="44.4837" ry="18"/>
<text text-anchor="middle" x="562.34" y="-191.3" font-family="Times,serif" font-size="14.00">Invitation</text>
</g>
<!-- Payment -->
<g id="node4" class="node"><title>Payment</title>
<ellipse fill="none" stroke="black" cx="666.34" cy="-195.5" rx="41.1093" ry="18"/>
<text text-anchor="middle" x="666.34" y="-191.3" font-family="Times,serif" font-size="14.00">Payment</text>
</g>
<!-- QueueItem -->
<g id="node5" class="node"><title>QueueItem</title>
<ellipse fill="none" stroke="black" cx="258.34" cy="-18" rx="49.286" ry="18"/>
<text text-anchor="middle" x="258.34" y="-13.8" font-family="Times,serif" font-size="14.00">QueueItem</text>
</g>
<!-- Relationship -->
<g id="node6" class="node"><title>Relationship</title>
<ellipse fill="none" stroke="black" cx="80.3401" cy="-18" rx="54.6248" ry="18"/>
<text text-anchor="middle" x="80.3401" y="-13.8" font-family="Times,serif" font-size="14.00">Relationship</text>
</g>
<!-- Review -->
<g id="node7" class="node"><title>Review</title>
<ellipse fill="none" stroke="black" cx="363.34" cy="-18" rx="37.2421" ry="18"/>
<text text-anchor="middle" x="363.34" y="-13.8" font-family="Times,serif" font-size="14.00">Review</text>
</g>
<!-- StripeWrapper -->
<g id="node8" class="node"><title>StripeWrapper</title>
<polygon fill="none" stroke="black" stroke-dasharray="1,5" points="823.194,-213.5 725.486,-213.5 725.486,-177.5 823.194,-177.5 823.194,-213.5"/>
<text text-anchor="middle" x="774.34" y="-191.3" font-family="Times,serif" font-size="14.00">StripeWrapper</text>
</g>
<!-- User -->
<g id="node9" class="node"><title>User</title>
<ellipse fill="none" stroke="black" cx="216.34" cy="-104" rx="27" ry="18"/>
<text text-anchor="middle" x="216.34" y="-99.8" font-family="Times,serif" font-size="14.00">User</text>
</g>
<!-- User&#45;&gt;QueueItem -->
<g id="edge3" class="edge"><title>User&#45;&gt;QueueItem</title>
<path fill="none" stroke="#97aee4" d="M245.401,-89.3962C253.687,-83.9799 261.714,-76.8844 266.34,-68 269.843,-61.2721 269.992,-53.3795 268.68,-45.9181"/>
<ellipse fill="none" stroke="#97aee4" cx="241.882" cy="-91.5004" rx="4.00002" ry="4.00002"/>
<polygon fill="#97aee4" stroke="#97aee4" points="268.661,-45.8432 270.519,-35.0358 267.411,-41.0018 266.161,-36.1604 266.161,-36.1604 266.161,-36.1604 267.411,-41.0018 261.804,-37.285 268.661,-45.8432 268.661,-45.8432"/>
</g>
<!-- User&#45;&gt;Relationship -->
<g id="edge5" class="edge"><title>User&#45;&gt;Relationship</title>
<path fill="none" stroke="#3be7d2" d="M180.869,-102.465C126.522,-100.81 26.5855,-94.1875 4.36742,-68 -7.97142,-53.4568 8.52179,-41.6796 29.2554,-33.3194"/>
<ellipse fill="none" stroke="#3be7d2" cx="185.183" cy="-102.582" rx="4" ry="4"/>
<polygon fill="#3be7d2" stroke="#3be7d2" points="29.282,-33.3096 40.2226,-34.054 33.9704,-31.572 38.6588,-29.8345 38.6588,-29.8345 38.6588,-29.8345 33.9704,-31.572 37.095,-25.6149 29.282,-33.3096 29.282,-33.3096"/>
<text text-anchor="middle" x="68.3264" y="-56.8" font-family="Times,serif" font-size="14.00">follower_relationships</text>
</g>
<!-- User&#45;&gt;Relationship -->
<g id="edge6" class="edge"><title>User&#45;&gt;Relationship</title>
<path fill="none" stroke="#448e84" d="M187.682,-89.1268C175.693,-83.0285 161.751,-75.5453 149.602,-68 140.611,-62.4165 138.956,-60.1459 130.34,-54 124.172,-49.6004 117.55,-44.9281 111.207,-40.4787"/>
<ellipse fill="none" stroke="#448e84" cx="191.286" cy="-90.9375" rx="4.00002" ry="4.00002"/>
<polygon fill="#448e84" stroke="#448e84" points="110.994,-40.3296 105.381,-30.9091 106.897,-37.4628 102.801,-34.596 102.801,-34.596 102.801,-34.596 106.897,-37.4628 100.221,-38.2829 110.994,-40.3296 110.994,-40.3296"/>
<text text-anchor="middle" x="206.709" y="-56.8" font-family="Times,serif" font-size="14.00">leader_relationships</text>
</g>
<!-- User&#45;&gt;Review -->
<g id="edge4" class="edge"><title>User&#45;&gt;Review</title>
<path fill="none" stroke="#633b9c" d="M244.436,-88.547C256.226,-82.367 270.031,-74.9796 282.34,-68 299.152,-58.467 317.61,-47.3528 332.655,-38.1216"/>
<ellipse fill="none" stroke="#633b9c" cx="240.562" cy="-90.5676" rx="4.00002" ry="4.00002"/>
<polygon fill="#633b9c" stroke="#633b9c" points="333.023,-37.8949 343.897,-36.4791 337.279,-35.2716 341.536,-32.6482 341.536,-32.6482 341.536,-32.6482 337.279,-35.2716 339.175,-28.8173 333.023,-37.8949 333.023,-37.8949"/>
</g>
<!-- Video&#45;&gt;QueueItem -->
<g id="edge9" class="edge"><title>Video&#45;&gt;QueueItem</title>
<path fill="none" stroke="#ed0e24" d="M381.416,-87.0159C356.381,-73.1803 320.101,-53.1308 293.414,-38.383"/>
<ellipse fill="none" stroke="#ed0e24" cx="385.061" cy="-89.0301" rx="4.00002" ry="4.00002"/>
<polygon fill="#ed0e24" stroke="#ed0e24" points="293.161,-38.2434 286.586,-29.4679 288.785,-35.825 284.409,-33.4065 284.409,-33.4065 284.409,-33.4065 288.785,-35.825 282.232,-37.3451 293.161,-38.2434 293.161,-38.2434"/>
</g>
<!-- Video&#45;&gt;Review -->
<g id="edge8" class="edge"><title>Video&#45;&gt;Review</title>
<path fill="none" stroke="#7f7166" d="M398.556,-78.8465C394.515,-70.8561 389.867,-61.9724 385.34,-54 383.495,-50.7508 381.49,-47.3756 379.468,-44.06"/>
<ellipse fill="none" stroke="#7f7166" cx="400.579" cy="-82.8944" rx="4.00002" ry="4.00002"/>
<polygon fill="#7f7166" stroke="#7f7166" points="379.454,-44.0386 377.987,-33.1713 376.811,-39.7945 374.167,-35.5504 374.167,-35.5504 374.167,-35.5504 376.811,-39.7945 370.348,-37.9295 379.454,-44.0386 379.454,-44.0386"/>
</g>
<!-- Video&#45;&gt;VideoCategory -->
<g id="edge7" class="edge"><title>Video&#45;&gt;VideoCategory</title>
<path fill="none" stroke="#b5a8ad" d="M428.866,-81.3867C438.762,-69.8406 450.985,-55.5807 461.246,-43.6099"/>
<ellipse fill="none" stroke="#b5a8ad" cx="426.149" cy="-84.5561" rx="4.00002" ry="4.00002"/>
<polygon fill="#b5a8ad" stroke="#b5a8ad" points="461.475,-43.3422 471.4,-38.6781 464.729,-39.5459 467.983,-35.7496 467.983,-35.7496 467.983,-35.7496 464.729,-39.5459 464.567,-32.821 461.475,-43.3422 461.475,-43.3422"/>
</g>
</g>
</svg>
