<?xml version="1.0" encoding="UTF-8" standalone="no"?>
<!DOCTYPE svg PUBLIC "-//W3C//DTD SVG 1.1//EN"
 "http://www.w3.org/Graphics/SVG/1.1/DTD/svg11.dtd">
<!-- Generated by graphviz version 2.38.0 (20140413.2041)
 -->
<!-- Title: models_diagram Pages: 1 -->
<svg width="1083pt" height="538pt"
 viewBox="0.00 0.00 1083.43 538.00" xmlns="http://www.w3.org/2000/svg" xmlns:xlink="http://www.w3.org/1999/xlink">
<g id="graph0" class="graph" transform="scale(1 1) rotate(0) translate(4 534)">
<title>models_diagram</title>
<polygon fill="white" stroke="none" points="-4,4 -4,-534 1079.43,-534 1079.43,4 -4,4"/>
<!-- _diagram_info -->
<g id="node1" class="node"><title>_diagram_info</title>
<text text-anchor="start" x="267.056" y="-480.6" font-family="Times,serif" font-size="13.00">Models diagram</text>
<text text-anchor="start" x="267.056" y="-467.6" font-family="Times,serif" font-size="13.00">Date: Nov 07 2014 &#45; 19:28</text>
<text text-anchor="start" x="267.056" y="-454.6" font-family="Times,serif" font-size="13.00">Migration version: 20141108000706</text>
<text text-anchor="start" x="267.056" y="-441.6" font-family="Times,serif" font-size="13.00">Generated by RailRoady 1.2.0</text>
<text text-anchor="start" x="267.056" y="-428.6" font-family="Times,serif" font-size="13.00">http://railroady.prestonlee.com</text>
</g>
<!-- Category -->
<g id="node2" class="node"><title>Category</title>
<path fill="none" stroke="black" d="M496,-415.5C496,-415.5 605.011,-415.5 605.011,-415.5 611.011,-415.5 617.011,-421.5 617.011,-427.5 617.011,-427.5 617.011,-489.5 617.011,-489.5 617.011,-495.5 611.011,-501.5 605.011,-501.5 605.011,-501.5 496,-501.5 496,-501.5 490,-501.5 484,-495.5 484,-489.5 484,-489.5 484,-427.5 484,-427.5 484,-421.5 490,-415.5 496,-415.5"/>
<text text-anchor="middle" x="550.505" y="-486.3" font-family="Times,serif" font-size="14.00">Category</text>
<polyline fill="none" stroke="black" points="484,-479.5 617.011,-479.5 "/>
<text text-anchor="start" x="492" y="-464.3" font-family="Times,serif" font-size="14.00">id :integer</text>
<text text-anchor="start" x="492" y="-450.3" font-family="Times,serif" font-size="14.00">name :string</text>
<text text-anchor="start" x="492" y="-436.3" font-family="Times,serif" font-size="14.00">created_at :datetime</text>
<text text-anchor="start" x="492" y="-422.3" font-family="Times,serif" font-size="14.00">updated_at :datetime</text>
</g>
<!-- Video -->
<g id="node10" class="node"><title>Video</title>
<path fill="none" stroke="black" d="M429,-193.5C429,-193.5 538.011,-193.5 538.011,-193.5 544.011,-193.5 550.011,-199.5 550.011,-205.5 550.011,-205.5 550.011,-323.5 550.011,-323.5 550.011,-329.5 544.011,-335.5 538.011,-335.5 538.011,-335.5 429,-335.5 429,-335.5 423,-335.5 417,-329.5 417,-323.5 417,-323.5 417,-205.5 417,-205.5 417,-199.5 423,-193.5 429,-193.5"/>
<text text-anchor="middle" x="483.505" y="-320.3" font-family="Times,serif" font-size="14.00">Video</text>
<polyline fill="none" stroke="black" points="417,-313.5 550.011,-313.5 "/>
<text text-anchor="start" x="425" y="-298.3" font-family="Times,serif" font-size="14.00">id :integer</text>
<text text-anchor="start" x="425" y="-284.3" font-family="Times,serif" font-size="14.00">title :string</text>
<text text-anchor="start" x="425" y="-270.3" font-family="Times,serif" font-size="14.00">description :text</text>
<text text-anchor="start" x="425" y="-256.3" font-family="Times,serif" font-size="14.00">small_cover :string</text>
<text text-anchor="start" x="425" y="-242.3" font-family="Times,serif" font-size="14.00">large_cover :string</text>
<text text-anchor="start" x="425" y="-228.3" font-family="Times,serif" font-size="14.00">created_at :datetime</text>
<text text-anchor="start" x="425" y="-214.3" font-family="Times,serif" font-size="14.00">updated_at :datetime</text>
<text text-anchor="start" x="425" y="-200.3" font-family="Times,serif" font-size="14.00">video_url :string</text>
</g>
<!-- Category&#45;&gt;Video -->
<g id="edge2" class="edge"><title>Category&#45;&gt;Video</title>
<path fill="none" stroke="#635b0c" d="M532.455,-405.775C525.979,-387.215 518.515,-365.827 511.399,-345.435"/>
<polygon fill="#635b0c" stroke="#635b0c" points="532.507,-405.923 531.553,-416.847 534.155,-410.644 535.802,-415.365 535.802,-415.365 535.802,-415.365 534.155,-410.644 540.051,-413.882 532.507,-405.923 532.507,-405.923"/>
<polygon fill="#635b0c" stroke="#635b0c" points="511.345,-345.278 512.299,-334.354 509.697,-340.557 508.05,-335.837 508.05,-335.837 508.05,-335.837 509.697,-340.557 503.801,-337.319 511.345,-345.278 511.345,-345.278"/>
</g>
<!-- VideoCategory -->
<g id="node11" class="node"><title>VideoCategory</title>
<path fill="none" stroke="black" d="M528,-14.5C528,-14.5 637.011,-14.5 637.011,-14.5 643.011,-14.5 649.011,-20.5 649.011,-26.5 649.011,-26.5 649.011,-102.5 649.011,-102.5 649.011,-108.5 643.011,-114.5 637.011,-114.5 637.011,-114.5 528,-114.5 528,-114.5 522,-114.5 516,-108.5 516,-102.5 516,-102.5 516,-26.5 516,-26.5 516,-20.5 522,-14.5 528,-14.5"/>
<text text-anchor="middle" x="582.505" y="-99.3" font-family="Times,serif" font-size="14.00">VideoCategory</text>
<polyline fill="none" stroke="black" points="516,-92.5 649.011,-92.5 "/>
<text text-anchor="start" x="524" y="-77.3" font-family="Times,serif" font-size="14.00">id :integer</text>
<text text-anchor="start" x="524" y="-63.3" font-family="Times,serif" font-size="14.00">video_id :integer</text>
<text text-anchor="start" x="524" y="-49.3" font-family="Times,serif" font-size="14.00">category_id :integer</text>
<text text-anchor="start" x="524" y="-35.3" font-family="Times,serif" font-size="14.00">created_at :datetime</text>
<text text-anchor="start" x="524" y="-21.3" font-family="Times,serif" font-size="14.00">updated_at :datetime</text>
</g>
<!-- Category&#45;&gt;VideoCategory -->
<g id="edge1" class="edge"><title>Category&#45;&gt;VideoCategory</title>
<path fill="none" stroke="#550eea" d="M554.74,-407.275C556.255,-389.217 557.967,-368.695 559.505,-350 565.917,-272.079 573.162,-182.14 577.777,-124.595"/>
<ellipse fill="none" stroke="#550eea" cx="554.394" cy="-411.397" rx="4" ry="4"/>
<polygon fill="#550eea" stroke="#550eea" points="577.78,-124.557 583.065,-114.949 578.18,-119.573 578.58,-114.589 578.58,-114.589 578.58,-114.589 578.18,-119.573 574.094,-114.23 577.78,-124.557 577.78,-124.557"/>
</g>
<!-- Invitation -->
<g id="node3" class="node"><title>Invitation</title>
<path fill="none" stroke="black" d="M647.276,-387.5C647.276,-387.5 803.735,-387.5 803.735,-387.5 809.735,-387.5 815.735,-393.5 815.735,-399.5 815.735,-399.5 815.735,-517.5 815.735,-517.5 815.735,-523.5 809.735,-529.5 803.735,-529.5 803.735,-529.5 647.276,-529.5 647.276,-529.5 641.276,-529.5 635.276,-523.5 635.276,-517.5 635.276,-517.5 635.276,-399.5 635.276,-399.5 635.276,-393.5 641.276,-387.5 647.276,-387.5"/>
<text text-anchor="middle" x="725.505" y="-514.3" font-family="Times,serif" font-size="14.00">Invitation</text>
<polyline fill="none" stroke="black" points="635.276,-507.5 815.735,-507.5 "/>
<text text-anchor="start" x="643.276" y="-492.3" font-family="Times,serif" font-size="14.00">id :integer</text>
<text text-anchor="start" x="643.276" y="-478.3" font-family="Times,serif" font-size="14.00">inviter_id :integer</text>
<text text-anchor="start" x="643.276" y="-464.3" font-family="Times,serif" font-size="14.00">invitee_name :string</text>
<text text-anchor="start" x="643.276" y="-450.3" font-family="Times,serif" font-size="14.00">invitee_email_address :string</text>
<text text-anchor="start" x="643.276" y="-436.3" font-family="Times,serif" font-size="14.00">invitation_message :text</text>
<text text-anchor="start" x="643.276" y="-422.3" font-family="Times,serif" font-size="14.00">created_at :datetime</text>
<text text-anchor="start" x="643.276" y="-408.3" font-family="Times,serif" font-size="14.00">updated_at :datetime</text>
<text text-anchor="start" x="643.276" y="-394.3" font-family="Times,serif" font-size="14.00">token :string</text>
</g>
<!-- Payment -->
<g id="node4" class="node"><title>Payment</title>
<path fill="none" stroke="black" d="M845.893,-415.5C845.893,-415.5 947.118,-415.5 947.118,-415.5 953.118,-415.5 959.118,-421.5 959.118,-427.5 959.118,-427.5 959.118,-489.5 959.118,-489.5 959.118,-495.5 953.118,-501.5 947.118,-501.5 947.118,-501.5 845.893,-501.5 845.893,-501.5 839.893,-501.5 833.893,-495.5 833.893,-489.5 833.893,-489.5 833.893,-427.5 833.893,-427.5 833.893,-421.5 839.893,-415.5 845.893,-415.5"/>
<text text-anchor="middle" x="896.505" y="-486.3" font-family="Times,serif" font-size="14.00">Payment</text>
<polyline fill="none" stroke="black" points="833.893,-479.5 959.118,-479.5 "/>
<text text-anchor="start" x="841.893" y="-464.3" font-family="Times,serif" font-size="14.00">id :integer</text>
<text text-anchor="start" x="841.893" y="-450.3" font-family="Times,serif" font-size="14.00">user_id :integer</text>
<text text-anchor="start" x="841.893" y="-436.3" font-family="Times,serif" font-size="14.00">amount :integer</text>
<text text-anchor="start" x="841.893" y="-422.3" font-family="Times,serif" font-size="14.00">reference_id :string</text>
</g>
<!-- QueueItem -->
<g id="node5" class="node"><title>QueueItem</title>
<path fill="none" stroke="black" d="M226,-7.5C226,-7.5 335.011,-7.5 335.011,-7.5 341.011,-7.5 347.011,-13.5 347.011,-19.5 347.011,-19.5 347.011,-109.5 347.011,-109.5 347.011,-115.5 341.011,-121.5 335.011,-121.5 335.011,-121.5 226,-121.5 226,-121.5 220,-121.5 214,-115.5 214,-109.5 214,-109.5 214,-19.5 214,-19.5 214,-13.5 220,-7.5 226,-7.5"/>
<text text-anchor="middle" x="280.505" y="-106.3" font-family="Times,serif" font-size="14.00">QueueItem</text>
<polyline fill="none" stroke="black" points="214,-99.5 347.011,-99.5 "/>
<text text-anchor="start" x="222" y="-84.3" font-family="Times,serif" font-size="14.00">id :integer</text>
<text text-anchor="start" x="222" y="-70.3" font-family="Times,serif" font-size="14.00">video_id :integer</text>
<text text-anchor="start" x="222" y="-56.3" font-family="Times,serif" font-size="14.00">user_id :integer</text>
<text text-anchor="start" x="222" y="-42.3" font-family="Times,serif" font-size="14.00">list_order :integer</text>
<text text-anchor="start" x="222" y="-28.3" font-family="Times,serif" font-size="14.00">created_at :datetime</text>
<text text-anchor="start" x="222" y="-14.3" font-family="Times,serif" font-size="14.00">updated_at :datetime</text>
</g>
<!-- Relationship -->
<g id="node6" class="node"><title>Relationship</title>
<path fill="none" stroke="black" d="M12,-14.5C12,-14.5 121.011,-14.5 121.011,-14.5 127.011,-14.5 133.011,-20.5 133.011,-26.5 133.011,-26.5 133.011,-102.5 133.011,-102.5 133.011,-108.5 127.011,-114.5 121.011,-114.5 121.011,-114.5 12,-114.5 12,-114.5 6,-114.5 0,-108.5 0,-102.5 0,-102.5 0,-26.5 0,-26.5 0,-20.5 6,-14.5 12,-14.5"/>
<text text-anchor="middle" x="66.5054" y="-99.3" font-family="Times,serif" font-size="14.00">Relationship</text>
<polyline fill="none" stroke="black" points="0,-92.5 133.011,-92.5 "/>
<text text-anchor="start" x="8" y="-77.3" font-family="Times,serif" font-size="14.00">id :integer</text>
<text text-anchor="start" x="8" y="-63.3" font-family="Times,serif" font-size="14.00">follower_id :integer</text>
<text text-anchor="start" x="8" y="-49.3" font-family="Times,serif" font-size="14.00">leader_id :integer</text>
<text text-anchor="start" x="8" y="-35.3" font-family="Times,serif" font-size="14.00">created_at :datetime</text>
<text text-anchor="start" x="8" y="-21.3" font-family="Times,serif" font-size="14.00">updated_at :datetime</text>
</g>
<!-- Review -->
<g id="node7" class="node"><title>Review</title>
<path fill="none" stroke="black" d="M377,-0.5C377,-0.5 486.011,-0.5 486.011,-0.5 492.011,-0.5 498.011,-6.5 498.011,-12.5 498.011,-12.5 498.011,-116.5 498.011,-116.5 498.011,-122.5 492.011,-128.5 486.011,-128.5 486.011,-128.5 377,-128.5 377,-128.5 371,-128.5 365,-122.5 365,-116.5 365,-116.5 365,-12.5 365,-12.5 365,-6.5 371,-0.5 377,-0.5"/>
<text text-anchor="middle" x="431.505" y="-113.3" font-family="Times,serif" font-size="14.00">Review</text>
<polyline fill="none" stroke="black" points="365,-106.5 498.011,-106.5 "/>
<text text-anchor="start" x="373" y="-91.3" font-family="Times,serif" font-size="14.00">id :integer</text>
<text text-anchor="start" x="373" y="-77.3" font-family="Times,serif" font-size="14.00">body :text</text>
<text text-anchor="start" x="373" y="-63.3" font-family="Times,serif" font-size="14.00">rating :integer</text>
<text text-anchor="start" x="373" y="-49.3" font-family="Times,serif" font-size="14.00">user_id :integer</text>
<text text-anchor="start" x="373" y="-35.3" font-family="Times,serif" font-size="14.00">video_id :integer</text>
<text text-anchor="start" x="373" y="-21.3" font-family="Times,serif" font-size="14.00">created_at :datetime</text>
<text text-anchor="start" x="373" y="-7.3" font-family="Times,serif" font-size="14.00">updated_at :datetime</text>
</g>
<!-- StripeWrapper -->
<g id="node8" class="node"><title>StripeWrapper</title>
<polygon fill="none" stroke="black" stroke-dasharray="1,5" points="1075.36,-476.5 977.652,-476.5 977.652,-440.5 1075.36,-440.5 1075.36,-476.5"/>
<text text-anchor="middle" x="1026.51" y="-454.3" font-family="Times,serif" font-size="14.00">StripeWrapper</text>
</g>
<!-- User -->
<g id="node9" class="node"><title>User</title>
<path fill="none" stroke="black" d="M186.204,-179.5C186.204,-179.5 310.807,-179.5 310.807,-179.5 316.807,-179.5 322.807,-185.5 322.807,-191.5 322.807,-191.5 322.807,-337.5 322.807,-337.5 322.807,-343.5 316.807,-349.5 310.807,-349.5 310.807,-349.5 186.204,-349.5 186.204,-349.5 180.204,-349.5 174.204,-343.5 174.204,-337.5 174.204,-337.5 174.204,-191.5 174.204,-191.5 174.204,-185.5 180.204,-179.5 186.204,-179.5"/>
<text text-anchor="middle" x="248.505" y="-334.3" font-family="Times,serif" font-size="14.00">User</text>
<polyline fill="none" stroke="black" points="174.204,-327.5 322.807,-327.5 "/>
<text text-anchor="start" x="182.204" y="-312.3" font-family="Times,serif" font-size="14.00">id :integer</text>
<text text-anchor="start" x="182.204" y="-298.3" font-family="Times,serif" font-size="14.00">email_address :string</text>
<text text-anchor="start" x="182.204" y="-284.3" font-family="Times,serif" font-size="14.00">password_digest :string</text>
<text text-anchor="start" x="182.204" y="-270.3" font-family="Times,serif" font-size="14.00">full_name :string</text>
<text text-anchor="start" x="182.204" y="-256.3" font-family="Times,serif" font-size="14.00">created_at :datetime</text>
<text text-anchor="start" x="182.204" y="-242.3" font-family="Times,serif" font-size="14.00">updated_at :datetime</text>
<text text-anchor="start" x="182.204" y="-228.3" font-family="Times,serif" font-size="14.00">token :string</text>
<text text-anchor="start" x="182.204" y="-214.3" font-family="Times,serif" font-size="14.00">admin :boolean</text>
<text text-anchor="start" x="182.204" y="-200.3" font-family="Times,serif" font-size="14.00">customer_token :string</text>
<text text-anchor="start" x="182.204" y="-186.3" font-family="Times,serif" font-size="14.00">active :boolean</text>
</g>
<!-- User&#45;&gt;QueueItem -->
<g id="edge3" class="edge"><title>User&#45;&gt;QueueItem</title>
<path fill="none" stroke="#a17f2f" d="M295.683,-171.576C296.745,-168.045 297.694,-164.513 298.505,-161 300.675,-151.605 300.978,-141.646 300.141,-131.842"/>
<ellipse fill="none" stroke="#a17f2f" cx="294.416" cy="-175.489" rx="4.00001" ry="4.00001"/>
<polygon fill="#a17f2f" stroke="#a17f2f" points="300.116,-131.636 303.352,-121.159 299.501,-126.674 298.887,-121.712 298.887,-121.712 298.887,-121.712 299.501,-126.674 294.421,-122.265 300.116,-131.636 300.116,-131.636"/>
</g>
<!-- User&#45;&gt;Relationship -->
<g id="edge5" class="edge"><title>User&#45;&gt;Relationship</title>
<path fill="none" stroke="#c07b88" d="M166.299,-246.407C119.594,-232.032 64.9261,-206.268 36.5327,-161 29.5427,-149.856 29.3078,-136.951 32.4442,-124.302"/>
<ellipse fill="none" stroke="#c07b88" cx="170.185" cy="-247.563" rx="4.00001" ry="4.00001"/>
<polygon fill="#c07b88" stroke="#c07b88" points="32.4584,-124.256 39.7384,-116.056 33.951,-119.484 35.4436,-114.712 35.4436,-114.712 35.4436,-114.712 33.951,-119.484 31.1488,-113.369 32.4584,-124.256 32.4584,-124.256"/>
<text text-anchor="middle" x="100.492" y="-149.8" font-family="Times,serif" font-size="14.00">follower_relationships</text>
</g>
<!-- User&#45;&gt;Relationship -->
<g id="edge6" class="edge"><title>User&#45;&gt;Relationship</title>
<path fill="none" stroke="#5817d7" d="M184.928,-172.943C177.649,-163.941 170.105,-155.135 162.505,-147 154.402,-138.326 145.417,-129.665 136.289,-121.401"/>
<ellipse fill="none" stroke="#5817d7" cx="187.428" cy="-176.074" rx="4.00002" ry="4.00002"/>
<polygon fill="#5817d7" stroke="#5817d7" points="136.075,-121.211 131.596,-111.201 132.34,-117.887 128.605,-114.562 128.605,-114.562 128.605,-114.562 132.34,-117.887 125.613,-117.924 136.075,-121.211 136.075,-121.211"/>
<text text-anchor="middle" x="229.875" y="-149.8" font-family="Times,serif" font-size="14.00">leader_relationships</text>
</g>
<!-- User&#45;&gt;Review -->
<g id="edge4" class="edge"><title>User&#45;&gt;Review</title>
<path fill="none" stroke="#af99b5" d="M328.451,-177.001C341.009,-163.414 353.862,-149.507 366.044,-136.327"/>
<ellipse fill="none" stroke="#af99b5" cx="325.653" cy="-180.028" rx="4.00002" ry="4.00002"/>
<polygon fill="#af99b5" stroke="#af99b5" points="366.344,-136.003 376.436,-131.713 369.738,-132.331 373.131,-128.659 373.131,-128.659 373.131,-128.659 369.738,-132.331 369.827,-125.604 366.344,-136.003 366.344,-136.003"/>
</g>
<!-- Video&#45;&gt;QueueItem -->
<g id="edge9" class="edge"><title>Video&#45;&gt;QueueItem</title>
<path fill="none" stroke="#6257cb" d="M410.739,-192.526C389.385,-171.698 366.183,-149.067 345.358,-128.755"/>
<ellipse fill="none" stroke="#6257cb" cx="413.891" cy="-195.6" rx="4.00002" ry="4.00002"/>
<polygon fill="#6257cb" stroke="#6257cb" points="345.257,-128.656 341.24,-118.453 341.677,-125.165 338.098,-121.674 338.098,-121.674 338.098,-121.674 341.677,-125.165 334.956,-124.896 345.257,-128.656 345.257,-128.656"/>
</g>
<!-- Video&#45;&gt;Review -->
<g id="edge8" class="edge"><title>Video&#45;&gt;Review</title>
<path fill="none" stroke="#a99f46" d="M477.591,-185.441C475.623,-172.462 473,-159.248 469.505,-147 468.702,-144.185 467.813,-141.345 466.854,-138.5"/>
<ellipse fill="none" stroke="#a99f46" cx="478.171" cy="-189.52" rx="4.00001" ry="4.00001"/>
<polygon fill="#a99f46" stroke="#a99f46" points="466.757,-138.23 467.584,-127.296 465.055,-133.529 463.353,-128.827 463.353,-128.827 463.353,-128.827 465.055,-133.529 459.121,-130.359 466.757,-138.23 466.757,-138.23"/>
</g>
<!-- Video&#45;&gt;VideoCategory -->
<g id="edge7" class="edge"><title>Video&#45;&gt;VideoCategory</title>
<path fill="none" stroke="#13b805" d="M522.244,-186.022C532.614,-165.283 543.645,-143.22 553.397,-123.716"/>
<ellipse fill="none" stroke="#13b805" cx="520.337" cy="-189.836" rx="4.00002" ry="4.00002"/>
<polygon fill="#13b805" stroke="#13b805" points="553.454,-123.602 561.952,-116.67 555.691,-119.13 557.927,-114.657 557.927,-114.657 557.927,-114.657 555.691,-119.13 553.902,-112.645 553.454,-123.602 553.454,-123.602"/>
</g>
</g>
</svg>
